<svg xmlns="http://www.w3.org/2000/svg" version="1.1" xmlns:xlink="http://www.w3.org/1999/xlink" xmlns:svgjs="http://svgjs.com/svgjs" width="512" height="512" x="0" y="0" viewBox="0 0 64 64" style="enable-background:new 0 0 512 512" xml:space="preserve" class="">
  <g>
    <path d="M25.133 40.596h23.373a5.406 5.406 0 0 0 5.275-4.162l4.64-19.382a5.851 5.851 0 0 0-5.684-7.217H17.905l-.284-1.055A6.486 6.486 0 0 0 11.378 4H7.915a2.5 2.5 0 0 0 0 5h3.463a1.473 1.473 0 0 1 1.416 1.085l.767 2.848.028.104 6.304 23.537a5.382 5.382 0 0 0 .359.946l-2.392 4.138a4.88 4.88 0 0 0 4.23 7.318H51.91a2.5 2.5 0 0 0 0-5H22.296l1.994-3.45a5.404 5.404 0 0 0 .843.07zm-5.886-25.761h33.49a.85.85 0 0 1 .823 1.05l-4.642 19.386a.422.422 0 0 1-.412.325H25.133a.425.425 0 0 1-.41-.315z" fill="#000000" data-original="#000000" class=""></path>
    <circle cx="25.689" cy="54.013" r="3.487" fill="#000000" data-original="#000000" class=""></circle>
    <circle cx="46.664" cy="54.013" r="3.487" fill="#000000" data-original="#000000" class=""></circle>
  </g>
</svg>
