<?xml version="1.0" encoding="UTF-8"?>
<svg xmlns="http://www.w3.org/2000/svg" xmlns:xlink="http://www.w3.org/1999/xlink" width="80px" height="80px" viewBox="0 0 80 80" version="1.1">
<g id="surface1">
<path style=" stroke:none;fill-rule:nonzero;fill:rgb(0%,0%,0%);fill-opacity:1;" d="M 67.957031 7.207031 C 66.335938 5.582031 64.179688 4.6875 61.882812 4.6875 L 58.007812 4.6875 L 58.007812 3.90625 C 58.007812 1.753906 56.257812 0 54.101562 0 L 25.976562 0 C 23.824219 0 22.070312 1.753906 22.070312 3.90625 L 22.070312 4.6875 L 18.179688 4.6875 C 13.453125 4.6875 9.601562 8.539062 9.597656 13.269531 L 9.53125 71.394531 C 9.527344 73.695312 10.421875 75.855469 12.042969 77.480469 C 13.664062 79.105469 15.820312 80 18.117188 80 L 61.820312 80 C 66.546875 80 70.398438 76.148438 70.402344 71.417969 L 70.46875 13.292969 C 70.472656 10.992188 69.578125 8.832031 67.957031 7.207031 Z M 26.757812 4.6875 L 53.320312 4.6875 L 53.320312 9.375 L 26.757812 9.375 Z M 65.722656 71.410156 C 65.71875 73.5625 63.96875 75.3125 61.820312 75.3125 L 18.117188 75.3125 C 17.074219 75.3125 16.089844 74.90625 15.355469 74.167969 C 14.617188 73.425781 14.210938 72.445312 14.214844 71.402344 L 14.277344 13.277344 C 14.28125 11.125 16.03125 9.375 18.179688 9.375 L 22.070312 9.375 L 22.070312 10.15625 C 22.070312 12.308594 23.824219 14.0625 25.976562 14.0625 L 54.101562 14.0625 C 56.257812 14.0625 58.007812 12.308594 58.007812 10.15625 L 58.007812 9.375 L 61.882812 9.375 C 62.925781 9.375 63.910156 9.78125 64.644531 10.519531 C 65.382812 11.257812 65.789062 12.242188 65.785156 13.285156 Z M 65.722656 71.410156 "/>
<path style=" stroke:none;fill-rule:nonzero;fill:rgb(0%,0%,0%);fill-opacity:1;" d="M 40.796875 31.25 L 57.449219 31.25 C 58.742188 31.25 59.792969 30.199219 59.792969 28.90625 C 59.792969 27.613281 58.742188 26.5625 57.449219 26.5625 L 40.796875 26.5625 C 39.503906 26.5625 38.453125 27.613281 38.453125 28.90625 C 38.453125 30.199219 39.503906 31.25 40.796875 31.25 Z M 40.796875 46.875 L 57.449219 46.875 C 58.742188 46.875 59.792969 45.824219 59.792969 44.53125 C 59.792969 43.238281 58.742188 42.1875 57.449219 42.1875 L 40.796875 42.1875 C 39.503906 42.1875 38.453125 43.238281 38.453125 44.53125 C 38.453125 45.824219 39.503906 46.875 40.796875 46.875 Z M 57.515625 57.8125 L 40.796875 57.8125 C 39.503906 57.8125 38.453125 58.863281 38.453125 60.15625 C 38.453125 61.449219 39.503906 62.5 40.796875 62.5 L 57.515625 62.5 C 58.808594 62.5 59.859375 61.449219 59.859375 60.15625 C 59.859375 58.863281 58.808594 57.8125 57.515625 57.8125 Z M 30.820312 22.523438 L 25.417969 27.929688 L 24.140625 26.652344 C 23.226562 25.738281 21.742188 25.738281 20.828125 26.652344 C 19.914062 27.570312 19.914062 29.054688 20.828125 29.96875 L 23.757812 32.902344 C 24.675781 33.816406 26.160156 33.816406 27.074219 32.902344 L 34.136719 25.839844 C 35.050781 24.925781 35.050781 23.441406 34.136719 22.523438 C 33.222656 21.609375 31.738281 21.609375 30.820312 22.523438 Z M 30.820312 39.34375 L 25.417969 44.746094 L 24.140625 43.472656 C 23.226562 42.558594 21.742188 42.558594 20.828125 43.472656 C 19.914062 44.390625 19.914062 45.871094 20.828125 46.789062 L 23.757812 49.722656 C 24.675781 50.636719 26.160156 50.636719 27.074219 49.722656 L 34.136719 42.660156 C 35.050781 41.742188 35.050781 40.257812 34.136719 39.34375 C 33.222656 38.425781 31.738281 38.425781 30.820312 39.34375 Z M 30.820312 54.96875 L 25.417969 60.371094 L 24.140625 59.097656 C 23.226562 58.183594 21.742188 58.183594 20.828125 59.097656 C 19.914062 60.015625 19.914062 61.496094 20.828125 62.414062 L 23.757812 65.347656 C 24.675781 66.261719 26.160156 66.261719 27.074219 65.347656 L 34.136719 58.285156 C 35.050781 57.367188 35.050781 55.882812 34.136719 54.96875 C 33.222656 54.050781 31.738281 54.050781 30.820312 54.96875 Z M 30.820312 54.96875 "/>
</g>
</svg>
