<svg xmlns="http://www.w3.org/2000/svg" version="1.1" xmlns:xlink="http://www.w3.org/1999/xlink" xmlns:svgjs="http://svgjs.com/svgjs" width="512" height="512" x="0" y="0" viewBox="0 0 64 64" style="enable-background:new 0 0 512 512" xml:space="preserve" class=""><g><path d="M20.63 24.342a11.395 11.395 0 0 0 22.74 0l.503-7.666a11.899 11.899 0 1 0-23.746 0zm6.335-13.16a6.898 6.898 0 0 1 11.918 5.167l-.503 7.666A6.57 6.57 0 0 1 32 29.99a6.57 6.57 0 0 1-6.38-5.975l-.503-7.666a6.831 6.831 0 0 1 1.848-5.167z" fill="#ffffff" data-original="#000000" class=""></path><path d="M49.864 37.172a2.55 2.55 0 0 0-.205-.057 27.425 27.425 0 0 1-5.406-1.839 2.5 2.5 0 0 0-2.125 4.527 32.305 32.305 0 0 0 6.178 2.13c.499.262 3.065 1.96 2.205 8.785A45.65 45.65 0 0 1 32.21 55h-.477a45.531 45.531 0 0 1-18.245-4.282c-.88-6.989 1.827-8.6 2.162-8.775a32.377 32.377 0 0 0 6.221-2.14 2.5 2.5 0 0 0-2.125-4.527 27.425 27.425 0 0 1-5.406 1.839 2.563 2.563 0 0 0-.205.057c-.312.102-7.62 2.639-5.39 15.63a2.499 2.499 0 0 0 1.266 1.771 49.965 49.965 0 0 0 21.703 5.428h.555a50.002 50.002 0 0 0 21.718-5.428 2.499 2.499 0 0 0 1.266-1.77c2.23-12.992-5.078-15.53-5.39-15.63z" fill="#ffffff" data-original="#000000" class=""></path></g></svg>