<svg xmlns="http://www.w3.org/2000/svg" version="1.1" xmlns:xlink="http://www.w3.org/1999/xlink" xmlns:svgjs="http://svgjs.com/svgjs" width="150" height="150" x="0" y="0" viewBox="0 0 64 64" style="enable-background:new 0 0 512 512" xml:space="preserve" class=""><g><path d="M53.824 32.047v-.05a8.527 8.527 0 0 1 2.894-6.411 4.227 4.227 0 0 0 .866-5.273l-2.67-4.626a4.241 4.241 0 0 0-5.047-1.87 8.45 8.45 0 0 1-6.93-.69l-.349-.202a7.764 7.764 0 0 1-3.722-5.233A4.601 4.601 0 0 0 34.374 4h-4.748a4.618 4.618 0 0 0-4.507 3.77 7.98 7.98 0 0 1-3.936 5.288l-.126.072a8.043 8.043 0 0 1-6.6.796l-.327-.11a4.285 4.285 0 0 0-5.066 1.911l-2.625 4.546a4.284 4.284 0 0 0 .878 5.344 8.478 8.478 0 0 1 2.859 6.433 8.423 8.423 0 0 1-2.86 6.333 4.284 4.284 0 0 0-.877 5.344l2.453 4.25a4.704 4.704 0 0 0 5.563 2.098 8.046 8.046 0 0 1 6.607.798l.12.069a7.98 7.98 0 0 1 3.937 5.288 4.706 4.706 0 0 0 4.6 3.77h4.561a4.706 4.706 0 0 0 4.601-3.77 7.972 7.972 0 0 1 3.924-5.281l.138-.08a8.043 8.043 0 0 1 6.602-.794 4.702 4.702 0 0 0 5.563-2.099l2.453-4.249a4.284 4.284 0 0 0-.878-5.344 8.424 8.424 0 0 1-2.859-6.336Zm-5-.003a13.423 13.423 0 0 0 4.115 9.688l-2.036 3.527a13.053 13.053 0 0 0-10.47 1.286l-.102.059a12.998 12.998 0 0 0-6.3 8.396H29.97a13.005 13.005 0 0 0-6.312-8.403l-.085-.049a13.065 13.065 0 0 0-10.475-1.289l-2.036-3.528a13.482 13.482 0 0 0 4.115-9.775 13.423 13.423 0 0 0-4.115-9.688l2.036-3.527a13.073 13.073 0 0 0 10.475-1.29l.097-.055A13.037 13.037 0 0 0 29.967 9h4.064a12.734 12.734 0 0 0 6.054 8.254l.35.202a13.469 13.469 0 0 0 10.461 1.274l2.044 3.54a13.529 13.529 0 0 0-4.116 9.733Z" fill="#000000" data-original="#000000" class=""></path><path d="M32 21.015A10.985 10.985 0 1 0 42.985 32 10.998 10.998 0 0 0 32 21.015Zm0 16.97A5.985 5.985 0 1 1 37.985 32 5.992 5.992 0 0 1 32 37.985Z" fill="#000000" data-original="#000000" class=""></path></g></svg>